<svg width="67" height="60" viewBox="0 0 67 60" fill="none" xmlns="http://www.w3.org/2000/svg">
<path d="M55.5995 10.4807C57.3649 8.46416 58.7818 5.74062 60.0201 1.96866C57.8761 1.9274 55.7221 1.85835 53.6287 1.79081C47.9569 1.60925 42.0916 1.42045 36.3948 1.79536H36.3946C32.1199 2.07578 28.3125 2.64555 24.7566 3.53666C19.0114 5.7327 14.1779 9.79637 11.0145 15.0592C16.2407 15.2396 34.0379 15.4454 42.3114 15.3586C48.6894 15.2933 52.6634 13.8344 55.5995 10.4807Z" fill="#FDD807"/>
<path d="M55.5995 32.6127C57.3641 30.5968 58.7803 27.876 60.0185 24.1064C50.4364 24.0069 12.945 23.8876 7.86259 24.0306C7.3524 26.1472 7.09412 28.32 7.09412 30.499C7.09412 32.7718 7.37763 35.0416 7.93692 37.2549C12.7018 37.4332 44.9005 37.3507 46.8028 37.1386L46.8787 37.1248C50.6725 36.5087 53.4434 35.075 55.5995 32.6127Z" fill="#FDD807"/>
<path d="M10.9221 45.7767C11.3327 46.4701 11.7731 47.1435 12.2409 47.7956C16.3608 53.5357 22.6977 57.2828 29.6667 58.4049C29.6667 58.4049 41.9593 60.0459 49.4401 57.0293C56.4625 54.1976 59.5789 46.887 60.0185 45.5485C56.7327 45.5145 14.6894 45.6503 10.9221 45.7767Z" fill="#FDD807"/>
</svg>
